<svg width="113" height="30" viewBox="0 0 113 30" fill="none" xmlns="http://www.w3.org/2000/svg">
<path d="M24.8678 29.5407H5.69156C4.38393 29.5367 3.13133 29.0155 2.2067 28.0909C1.28206 27.1662 0.760457 25.9133 0.7565 24.6057V5.42967C0.76072 4.12222 1.28209 2.86953 2.2067 1.94511C3.1313 1.02069 4.38411 0.499622 5.69156 0.495667H24.8678C26.1752 0.499623 27.4278 1.02073 28.3522 1.94518C29.2767 2.86962 29.798 4.12231 29.8019 5.42967V24.6057C29.8028 25.2539 29.6755 25.8959 29.4279 26.4949C29.1803 27.094 28.8169 27.6382 28.3586 28.0966C27.9002 28.5549 27.356 28.9183 26.757 29.166C26.158 29.4136 25.516 29.5406 24.8678 29.5397" fill="#8989A2"/>
<path d="M24.8667 0.478668H15.2789V15.0007H29.8008V5.41266C29.7998 4.10414 29.2793 2.84952 28.3541 1.92426C27.4288 0.998993 26.1743 0.47872 24.8658 0.477661" fill="#A0A0BD"/>
<path d="M15.2789 29.5406H24.8667C26.1744 29.5367 27.4275 29.0155 28.3521 28.0909C29.2767 27.1662 29.7978 25.9133 29.8018 24.6057V15.0176H15.2798L15.2789 29.5406Z" fill="#BCBCD8"/>
<path d="M55.2669 19.0826C55.3199 19.0835 55.3719 19.0951 55.4202 19.1168C55.4685 19.1384 55.5118 19.1697 55.5477 19.2087L56.285 20.0137C55.7166 20.6734 55.0095 21.1999 54.2147 21.5557C53.2876 21.9471 52.2875 22.1356 51.2816 22.1086C50.3475 22.1217 49.4209 21.9451 48.557 21.5897C47.7656 21.2599 47.0545 20.7636 46.472 20.1347C45.88 19.4836 45.4246 18.7201 45.1336 17.8897C44.8075 16.9649 44.6463 15.9901 44.6575 15.0097C44.6462 14.0262 44.8194 13.0494 45.1678 12.1297C45.4861 11.29 45.9729 10.5243 46.598 9.87966C47.2237 9.24503 47.9746 8.74809 48.8035 8.42066C49.7065 8.0662 50.67 7.88994 51.64 7.90165C52.544 7.87958 53.4427 8.04118 54.2825 8.37665C55.0119 8.68614 55.6804 9.12295 56.2567 9.66666L55.6458 10.5297C55.6035 10.5913 55.5509 10.6454 55.4905 10.6897C55.4152 10.7364 55.3271 10.7585 55.2386 10.7527C55.1425 10.7489 55.05 10.7169 54.972 10.6607C54.878 10.5987 54.766 10.5237 54.638 10.4327C54.51 10.3417 54.356 10.2457 54.181 10.1417C53.983 10.0271 53.7755 9.92969 53.5609 9.85065C53.2897 9.75139 53.0108 9.67513 52.7269 9.62266C52.3656 9.55741 51.9987 9.52661 51.6317 9.53066C50.9324 9.52215 50.2383 9.65232 49.5897 9.91366C48.9847 10.1592 48.4391 10.5311 47.9896 11.0047C47.5278 11.5026 47.1731 12.0901 46.9476 12.7307C46.6898 13.4624 46.5631 14.2339 46.5736 15.0097C46.5611 15.7983 46.6877 16.583 46.9476 17.3277C47.1705 17.9629 47.5169 18.5477 47.9666 19.0487C48.3907 19.5136 48.9124 19.8792 49.494 20.1197C50.0963 20.3682 50.7423 20.4937 51.3939 20.4887C51.7668 20.4912 52.1392 20.4668 52.5086 20.4157C52.8213 20.3715 53.1286 20.2951 53.4256 20.1877C53.7014 20.087 53.9649 19.9551 54.2108 19.7947C54.4689 19.6246 54.7135 19.4351 54.9427 19.2277C55.029 19.1408 55.1447 19.0892 55.2669 19.0826Z" fill="#8989A2"/>
<path d="M60.4055 7.66864V21.9527H58.6799V7.66864H60.4055Z" fill="#8989A2"/>
<path d="M67.3407 11.9746C67.8982 11.9702 68.4512 12.072 68.9706 12.2746C69.4563 12.4641 69.8961 12.7549 70.2606 13.1276C70.6366 13.5224 70.9259 13.9914 71.1097 14.5046C71.3202 15.1041 71.4216 15.7364 71.4095 16.3716C71.4258 16.557 71.396 16.7436 71.3226 16.9146C71.2841 16.9639 71.2335 17.0023 71.1757 17.0261C71.1178 17.0499 71.0546 17.0584 70.9926 17.0506H64.4559C64.4575 17.5999 64.5424 18.1458 64.7079 18.6696C64.8428 19.0915 65.0604 19.4822 65.3485 19.8186C65.6131 20.1214 65.9457 20.3575 66.3187 20.5076C66.72 20.6645 67.1477 20.7419 67.5785 20.7356C67.9576 20.7434 68.3358 20.6928 68.6996 20.5856C68.9777 20.4997 69.2484 20.391 69.5087 20.2606C69.7036 20.1624 69.8931 20.0539 70.0765 19.9356C70.1903 19.8494 70.3264 19.7973 70.4686 19.7856C70.5333 19.7828 70.5977 19.7965 70.6556 19.8254C70.7135 19.8543 70.763 19.8973 70.7997 19.9506L71.2836 20.5806C71.0651 20.844 70.807 21.0714 70.5179 21.2546C70.2185 21.4465 69.8984 21.6041 69.5638 21.7246C69.2218 21.8479 68.8692 21.9403 68.5106 22.0006C68.1552 22.0615 67.7956 22.0923 67.4349 22.0926C66.7933 22.0994 66.1559 21.9826 65.5585 21.7486C64.9959 21.5255 64.4894 21.1813 64.0746 20.7406C63.6396 20.266 63.3078 19.7062 63.1005 19.0966C62.8564 18.3721 62.7388 17.6111 62.7518 16.8466C62.7463 16.1933 62.8528 15.5439 63.0668 14.9266C63.2626 14.3555 63.5708 13.8294 63.9735 13.3796C64.3755 12.9373 64.8683 12.5867 65.4179 12.3516C66.0256 12.0935 66.6805 11.9651 67.3407 11.9746ZM67.3798 13.2456C67.0199 13.2257 66.6596 13.2794 66.3212 13.4036C65.9828 13.5277 65.6731 13.7197 65.4115 13.9676C64.9014 14.5175 64.5878 15.2207 64.5189 15.9676H69.8627C69.8667 15.5945 69.8109 15.2231 69.6976 14.8676C69.596 14.5501 69.4311 14.2565 69.2128 14.0046C68.9977 13.7613 68.7306 13.5693 68.4315 13.4426C68.098 13.3056 67.7402 13.2386 67.3798 13.2456Z" fill="#8989A2"/>
<path d="M80.8275 21.9526H80.0604C79.9209 21.9583 79.7822 21.9316 79.6547 21.8746C79.5977 21.8393 79.5498 21.7909 79.515 21.7336C79.4803 21.6762 79.4595 21.6115 79.4545 21.5446L79.2616 20.6326C79.0029 20.8653 78.7508 21.074 78.5048 21.2586C78.263 21.4403 78.0025 21.5961 77.7284 21.7236C77.4513 21.8519 77.1607 21.9478 76.8617 22.0096C76.525 22.0782 76.1823 22.1117 75.8387 22.1096C75.4755 22.1121 75.1139 22.0577 74.7674 21.9486C74.4482 21.849 74.1531 21.685 73.8998 21.4666C73.6465 21.2427 73.4456 20.9654 73.3124 20.6546C73.1591 20.2865 73.085 19.8903 73.0946 19.4916C73.0965 19.0948 73.207 18.706 73.4144 18.3676C73.6714 17.9655 74.0268 17.6355 74.4466 17.4086C75.0316 17.0887 75.6605 16.8575 76.3133 16.7226C77.2411 16.5283 78.1879 16.4384 79.1356 16.4547V15.6836C79.1796 15.0637 79.0061 14.4478 78.6454 13.9417C78.4648 13.7391 78.2405 13.5805 77.9891 13.4783C77.7378 13.376 77.4664 13.3327 77.1957 13.3516C76.835 13.342 76.4755 13.3962 76.1337 13.5116C75.8729 13.6051 75.6225 13.7254 75.3866 13.8706C75.1766 14.004 74.9956 14.1236 74.8436 14.2296C74.7139 14.3285 74.5564 14.3844 74.3934 14.3896C74.2843 14.3922 74.1774 14.36 74.0878 14.2976C74.0019 14.2385 73.9308 14.1605 73.8798 14.0696L73.5677 13.5166C74.0736 13.0181 74.6693 12.6201 75.3236 12.3436C75.9863 12.0782 76.6948 11.9464 77.4086 11.9556C77.9098 11.9465 78.4077 12.0386 78.8724 12.2266C79.2828 12.3961 79.6507 12.6543 79.9496 12.9827C80.2492 13.3229 80.4737 13.7226 80.6078 14.1556C80.7617 14.645 80.837 15.1557 80.8314 15.6686L80.8275 21.9526ZM76.3475 20.8956C76.6282 20.8984 76.9082 20.8675 77.1815 20.8036C77.4286 20.7444 77.6677 20.6564 77.8944 20.5416C78.1213 20.4261 78.3362 20.2881 78.5355 20.1296C78.7486 19.9601 78.9493 19.7752 79.1356 19.5766V17.5496C78.4568 17.5404 77.7787 17.591 77.1088 17.7006C76.6417 17.7752 76.1854 17.9079 75.7513 18.0956C75.4522 18.2193 75.1901 18.4176 74.9896 18.6716C74.833 18.8867 74.7496 19.1466 74.7523 19.4126C74.7467 19.6433 74.7901 19.8726 74.8788 20.0856C74.9549 20.2641 75.0712 20.4225 75.2186 20.5486C75.3645 20.6712 75.535 20.7609 75.7186 20.8116C75.923 20.8688 76.1343 20.8971 76.3466 20.8956H76.3475Z" fill="#8989A2"/>
<path d="M83.4466 21.9527V12.1297H84.4358C84.574 12.1149 84.7124 12.1532 84.8235 12.2367C84.9091 12.3417 84.96 12.4706 84.9695 12.6057L85.0857 14.1377C85.3739 13.5165 85.8002 12.9692 86.3318 12.5377C86.8291 12.152 87.4433 11.9484 88.0725 11.9607C88.3212 11.9577 88.5695 11.9887 88.8098 12.0527C89.0237 12.1119 89.2288 12.1982 89.4207 12.3097L89.1975 13.5997C89.1855 13.6696 89.1487 13.7327 89.0935 13.7772C89.0383 13.8217 88.9686 13.8446 88.8977 13.8417C88.7551 13.831 88.6146 13.8001 88.4807 13.7497C88.2249 13.6795 87.9598 13.6484 87.6946 13.6577C87.1447 13.6396 86.6079 13.8264 86.1878 14.1817C85.7349 14.6021 85.3876 15.1236 85.1746 15.7037V21.9587L83.4466 21.9527Z" fill="#8989A2"/>
<path d="M91.3217 21.9527V7.66864H93.0566V13.5456C93.4505 13.0844 93.9248 12.6985 94.4565 12.4066C95.0131 12.1116 95.6357 11.9629 96.2655 11.9746C96.7965 11.9669 97.3226 12.0761 97.8066 12.2946C98.2705 12.5116 98.6741 12.8396 98.9809 13.2496C99.3272 13.7212 99.5803 14.2544 99.7275 14.8206C99.9123 15.5248 100.001 16.2508 99.9897 16.9787C99.9956 17.6635 99.8975 18.3453 99.6987 19.0006C99.5237 19.5884 99.2391 20.1378 98.8598 20.6196C98.4982 21.0722 98.0415 21.4396 97.5219 21.6956C96.9674 21.9637 96.3575 22.0983 95.7416 22.0887C95.1812 22.1056 94.6261 21.9786 94.1288 21.7197C93.6734 21.4634 93.2778 21.113 92.9687 20.6917L92.8818 21.5836C92.8701 21.6909 92.8169 21.7895 92.7338 21.8584C92.6507 21.9273 92.5445 21.9611 92.4369 21.9527H91.3217ZM95.7045 13.3526C95.185 13.3414 94.6726 13.4758 94.2255 13.7406C93.7702 14.0302 93.3739 14.4035 93.0575 14.8407V19.5927C93.3188 19.9761 93.6743 20.286 94.0898 20.4926C94.4876 20.6713 94.9198 20.7607 95.3559 20.7546C95.7614 20.7765 96.1661 20.6988 96.5346 20.5281C96.9031 20.3574 97.2241 20.0991 97.4697 19.7757C98.0105 18.9487 98.2689 17.9688 98.2065 16.9827C98.2157 16.4282 98.1587 15.8746 98.0365 15.3336C97.9475 14.929 97.7813 14.5453 97.5468 14.2036C97.3485 13.9214 97.077 13.6984 96.7616 13.5586C96.4263 13.4162 96.0649 13.3457 95.7006 13.3516L95.7045 13.3526Z" fill="#8989A2"/>
<path d="M104.412 9.05065C104.414 9.2128 104.38 9.37335 104.312 9.52065C104.244 9.66465 104.153 9.79592 104.041 9.90865C103.928 10.0218 103.794 10.1124 103.648 10.1757C103.498 10.2417 103.336 10.2758 103.172 10.2757C103.01 10.2763 102.85 10.2422 102.702 10.1757C102.557 10.1118 102.425 10.0212 102.314 9.90865C102.201 9.79714 102.11 9.66555 102.046 9.52065C101.98 9.37279 101.945 9.21262 101.946 9.05065C101.946 8.88553 101.98 8.72222 102.046 8.57065C102.108 8.42117 102.199 8.2853 102.314 8.17066C102.425 8.05821 102.557 7.96765 102.702 7.90366C102.85 7.8372 103.01 7.8031 103.172 7.80366C103.336 7.80366 103.498 7.83772 103.648 7.90366C103.794 7.96706 103.928 8.05766 104.041 8.17066C104.155 8.2865 104.246 8.42202 104.312 8.57065C104.379 8.72167 104.413 8.88534 104.412 9.05065ZM104.025 12.1347V21.9577H102.297V12.1347H104.025Z" fill="#8989A2"/>
<path d="M110.046 22.1076C109.719 22.129 109.391 22.0823 109.083 21.9705C108.775 21.8586 108.494 21.6839 108.257 21.4576C107.809 20.9407 107.584 20.2678 107.631 19.5856V13.5736H106.448C106.352 13.5765 106.258 13.5437 106.185 13.4816C106.148 13.4447 106.119 13.3999 106.1 13.3504C106.082 13.301 106.075 13.2481 106.079 13.1956V12.5076L107.688 12.3076L108.089 9.27262C108.099 9.18019 108.144 9.09512 108.215 9.03461C108.291 8.97158 108.387 8.93882 108.486 8.94262H109.36V12.3276H112.173V13.5786H109.361V19.4786C109.347 19.6444 109.367 19.8111 109.418 19.9692C109.47 20.1273 109.552 20.2736 109.66 20.3996C109.763 20.4999 109.884 20.5783 110.017 20.6298C110.151 20.6814 110.293 20.7052 110.436 20.6996C110.596 20.703 110.755 20.6783 110.906 20.6266C111.025 20.5844 111.14 20.5308 111.249 20.4666C111.347 20.408 111.429 20.3546 111.496 20.3066C111.548 20.2646 111.611 20.2392 111.677 20.2336C111.728 20.238 111.777 20.2554 111.82 20.2843C111.862 20.3132 111.896 20.3526 111.919 20.3986L112.419 21.2226C112.107 21.5099 111.742 21.7326 111.344 21.8776C110.928 22.0322 110.489 22.1101 110.046 22.1076Z" fill="#8989A2"/>
</svg>
