<svg width="86" height="30" viewBox="0 0 86 30" fill="none" xmlns="http://www.w3.org/2000/svg">
<path fill-rule="evenodd" clip-rule="evenodd" d="M21.5625 16.8214C21.483 17.0366 21.4618 17.269 21.5011 17.4951C21.5405 17.7211 21.639 17.9327 21.7865 18.1084C21.9552 18.2373 22.15 18.3278 22.3573 18.3734C22.5646 18.419 22.7794 18.4186 22.9865 18.3724C23.8138 18.1919 24.6708 18.1977 25.4955 18.3894C25.7067 18.481 25.8953 18.6176 26.0481 18.7897C26.201 18.9618 26.3143 19.1653 26.3803 19.3858C26.4464 19.6063 26.4634 19.8385 26.4303 20.0663C26.3971 20.2941 26.3146 20.5118 26.1885 20.7044C25.8598 21.2466 25.452 21.7367 24.9785 22.1584C23.473 23.9078 22.1513 25.8075 21.0345 27.8274C20.5415 28.6274 19.8885 29.6934 18.8505 29.7994C18.3823 29.8669 17.9059 29.7552 17.5165 29.4866C17.1271 29.2179 16.8536 28.8121 16.7505 28.3504C16.6095 27.3714 17.5565 26.4374 18.2025 25.7944C18.6565 25.3404 19.0805 24.8724 19.5025 24.3844C19.9955 23.8204 20.4615 23.2584 20.9025 22.6594C21.4175 21.9594 22.2735 20.8134 21.6415 19.9484C21.1835 19.3124 20.2095 19.4234 19.5735 19.6774C18.7633 20.0602 18.0672 20.6483 17.5545 21.3834C16.9962 22.2082 16.4866 23.065 16.0285 23.9494C15.67 24.68 15.1531 25.3216 14.5155 25.8274C14.1891 26.0389 13.795 26.1197 13.4117 26.0535C13.0284 25.9874 12.6841 25.7791 12.4475 25.4704C12.2644 25.0887 12.1904 24.6638 12.2339 24.2427C12.2773 23.8216 12.4364 23.4207 12.6935 23.0844C13.0905 22.4968 13.5546 21.9575 14.0765 21.4774C14.8575 20.6774 15.6495 19.8824 16.4085 19.0594C16.7885 18.6374 17.1655 18.2214 17.5085 17.7874C17.8195 17.3874 18.2875 16.8634 18.1495 16.3084C17.8885 15.2634 16.2365 15.6424 15.5615 15.9734C14.611 16.5186 13.7687 17.2338 13.0765 18.0834C12.3231 18.9539 11.6352 19.8791 11.0185 20.8514C9.71255 22.7984 8.50655 24.8254 7.15855 26.7424C6.59655 27.5424 5.92655 28.5094 4.89855 28.7144C4.65106 28.7666 4.39533 28.7657 4.14821 28.7118C3.90109 28.6579 3.66819 28.5523 3.46486 28.4019C3.26153 28.2515 3.09239 28.0597 2.96857 27.8391C2.84476 27.6186 2.76909 27.3743 2.74655 27.1224C2.73971 26.2125 3.07401 25.333 3.68355 24.6574C4.15021 24.0507 4.62688 23.4534 5.11355 22.8654C6.41355 21.2924 7.72355 19.7174 9.05755 18.1824C10.1885 16.8664 11.2755 15.5204 12.3385 14.1374C12.9385 13.3434 13.5515 12.5624 14.1035 11.7374C14.5766 10.9222 15.1854 10.1938 15.9035 9.58339C16.2091 9.32105 16.5894 9.16137 16.9906 9.12692C17.3918 9.09246 17.7938 9.18498 18.1395 9.39139C18.9725 10.0374 18.5615 11.2354 18.2155 12.0194C17.8695 12.8034 17.5375 13.7894 18.5315 14.1664C19.2315 14.4374 20.0105 14.2204 20.6955 14.5664C21.0799 14.7836 21.3771 15.1273 21.5366 15.539C21.6962 15.9507 21.7081 16.4049 21.5705 16.8244" fill="#8989A2"/>
<path fill-rule="evenodd" clip-rule="evenodd" d="M7.69754 16.8854C9.32198 14.5261 11.0826 12.2636 12.9705 10.1094C14.5655 8.29237 16.2485 6.55237 17.9005 4.78037C18.5579 4.15927 18.961 3.31601 19.0315 2.41437C19.0471 2.19407 19.0161 1.97296 18.9408 1.76535C18.8655 1.55774 18.7474 1.36826 18.5943 1.20915C18.4411 1.05005 18.2562 0.924863 18.0516 0.841701C17.8471 0.758538 17.6273 0.719248 17.4065 0.726371C16.9412 0.806575 16.4988 0.98701 16.1102 1.25517C15.7215 1.52333 15.3957 1.87281 15.1555 2.27937C14.5175 3.09637 13.9705 3.97837 13.3975 4.83637C12.8505 5.64737 12.2345 6.40437 11.6525 7.19037C11.0115 8.06537 10.3905 8.96037 9.68054 9.77337C9.12854 10.3974 8.42054 11.5164 7.46254 11.4984C7.29182 11.491 7.12723 11.4326 6.99012 11.3306C6.853 11.2286 6.74968 11.0878 6.69354 10.9264C6.62409 10.7173 6.61025 10.4938 6.65339 10.2778C6.69652 10.0618 6.79514 9.86071 6.93954 9.69437C7.38783 9.06533 7.88683 8.47403 8.43155 7.92637C9.00032 7.45708 9.48259 6.89189 9.85654 6.25637C9.9925 5.93848 10.0376 5.58909 9.98672 5.24711C9.93587 4.90512 9.7911 4.58396 9.56854 4.31937C9.43114 4.1521 9.24917 4.02716 9.0437 3.95902C8.83824 3.89089 8.61767 3.88234 8.40754 3.93437C7.91454 4.07737 7.57454 4.57237 7.17554 4.84637C6.90954 5.02637 6.35454 5.18937 6.18954 4.79237C6.02454 4.39537 6.51754 4.00637 6.73454 3.78437C7.33454 3.16537 8.39754 2.52637 8.45854 1.57837C8.46432 1.35421 8.41391 1.13216 8.31192 0.932466C8.20993 0.732767 8.05959 0.56176 7.87461 0.435023C7.68962 0.308287 7.47587 0.229848 7.25281 0.206854C7.02976 0.183859 6.8045 0.217039 6.59754 0.303371C5.72774 0.670771 4.99797 1.3063 4.51454 2.11737C4.04854 2.77837 3.23754 3.93637 3.54554 4.78937C3.62124 4.97435 3.74692 5.13462 3.90852 5.25224C4.07011 5.36986 4.26125 5.4402 4.46054 5.45537C4.88454 5.52237 5.47154 5.29037 5.84354 5.53937C6.68854 6.10637 5.65354 7.46437 5.27154 8.00437C4.67789 8.82929 4.01768 9.60421 3.29754 10.3214C2.54354 11.0804 1.70554 11.8004 1.02754 12.6214C0.715034 12.9234 0.509762 13.3193 0.442971 13.7487C0.37618 14.1782 0.451527 14.6177 0.657544 15.0004C0.794335 15.1837 0.971723 15.3328 1.1758 15.4361C1.37988 15.5393 1.60511 15.5939 1.83382 15.5956C2.06253 15.5972 2.28852 15.5459 2.49407 15.4456C2.69961 15.3453 2.87913 15.1987 3.01854 15.0174C3.56888 14.1882 4.17318 13.3962 4.82754 12.6464C4.97801 12.4886 5.16695 12.3728 5.37577 12.3102C5.58459 12.2476 5.80611 12.2404 6.01854 12.2894C6.12476 12.3292 6.22196 12.3898 6.30446 12.4677C6.38695 12.5456 6.45309 12.6391 6.499 12.7428C6.54491 12.8466 6.56966 12.9584 6.57182 13.0718C6.57397 13.1853 6.55348 13.298 6.51154 13.4034C6.11423 14.3343 5.50058 15.1571 4.72154 15.8034C4.02154 16.5424 3.24254 17.1784 2.55954 17.9114C2.22796 18.2291 1.96525 18.6116 1.78771 19.0351C1.61018 19.4587 1.52162 19.9142 1.52754 20.3734C1.54716 20.6071 1.62284 20.8327 1.74818 21.031C1.87351 21.2292 2.04481 21.3944 2.24754 21.5124C2.65955 21.6678 3.10944 21.6925 3.536 21.5832C3.96256 21.4739 4.34509 21.2358 4.63154 20.9014C5.5517 19.9453 6.36576 18.8925 7.05954 17.7614L7.69754 16.8854Z" fill="#8989A2"/>
<path fill-rule="evenodd" clip-rule="evenodd" d="M25.2395 4.18336C24.7465 4.69636 24.1995 5.16936 23.6985 5.66236C23.1975 6.15536 22.4665 6.91436 22.6985 7.68336C22.7658 7.84345 22.8712 7.9846 23.0057 8.09442C23.1402 8.20425 23.2996 8.27938 23.4699 8.31325C23.6402 8.34711 23.8162 8.33866 23.9825 8.28864C24.1487 8.23862 24.3002 8.14856 24.4235 8.02636C24.9925 7.53336 25.4735 6.75236 26.3385 6.97836C26.7014 7.12378 26.9952 7.40211 27.16 7.75663C27.3249 8.11115 27.3483 8.51517 27.2255 8.88636C26.9693 9.61866 26.5093 10.2626 25.8995 10.7424C25.3036 11.3517 24.7762 12.0243 24.3265 12.7484C23.9715 13.3224 23.6015 13.9194 22.8475 13.9804C22.5046 13.9786 22.1728 13.8581 21.9086 13.6393C21.6444 13.4205 21.4642 13.117 21.3986 12.7804C21.3538 12.3721 21.4049 11.9591 21.5478 11.574C21.6907 11.189 21.9214 10.8426 22.2215 10.5624C22.6215 10.0694 23.1115 9.31736 22.5125 8.76236C21.8615 8.16236 20.9665 8.57236 20.2945 8.86236C20.1329 8.95753 19.9541 9.01972 19.7683 9.04534C19.5825 9.07096 19.3935 9.05949 19.2121 9.0116C19.0308 8.96371 18.8608 8.88034 18.7118 8.76633C18.5629 8.65232 18.4381 8.50991 18.3445 8.34736C18.2057 8.01007 18.1618 7.64126 18.2175 7.28081C18.2732 6.92036 18.4264 6.58201 18.6605 6.30236C19.3185 5.35536 20.1965 4.57736 20.8785 3.63536C21.7485 2.47236 22.3356 0.591356 24.0926 0.729355C24.4534 0.769463 24.7971 0.904779 25.0884 1.12144C25.3798 1.3381 25.6083 1.62832 25.7505 1.96236C25.8828 2.3426 25.9051 2.75243 25.8148 3.14477C25.7246 3.53711 25.5256 3.89605 25.2405 4.18036" fill="#8989A2"/>
<path fill-rule="evenodd" clip-rule="evenodd" d="M32.6055 24.0093H35.7535V9.83734L41.4455 24.0093H42.5745L48.1625 9.84034V24.0093H51.6525V5.24835H47.0335L42.2075 18.0663L37.2775 5.26034H32.6055V24.0093ZM53.6855 24.0093H56.8605V10.2863H53.6855V24.0093ZM55.2335 8.03134C55.6561 8.01813 56.0611 7.85909 56.3797 7.58123C56.6984 7.30336 56.911 6.9238 56.9816 6.50696C57.0522 6.09012 56.9764 5.6617 56.767 5.29442C56.5576 4.92713 56.2276 4.64363 55.8329 4.49202C55.4383 4.34041 55.0033 4.33005 54.6019 4.46268C54.2004 4.59532 53.8573 4.86279 53.6306 5.21968C53.404 5.57657 53.3078 6.0009 53.3585 6.42063C53.4092 6.84035 53.6035 7.22962 53.9085 7.52235C54.0842 7.69143 54.2919 7.82359 54.5195 7.91102C54.7471 7.99844 54.9899 8.03936 55.2335 8.03134ZM58.8915 24.0093H62.0665V15.9263C62.0316 15.4914 62.0907 15.054 62.2398 14.6439C62.3889 14.2338 62.6246 13.8606 62.9307 13.5497C63.2368 13.2387 63.6063 12.9972 64.014 12.8417C64.4217 12.6862 64.8581 12.6203 65.2935 12.6483C67.1815 12.6483 68.0225 13.5923 68.0225 15.6653V24.0093H71.1975V15.3813C71.1975 11.6023 69.2555 10.0023 66.4975 10.0023C65.6004 9.95034 64.7069 10.1545 63.9213 10.5909C63.1357 11.0273 62.4904 11.6781 62.0605 12.4673V10.2863H58.8905L58.8915 24.0093ZM79.2765 24.2703C82.7915 24.2703 85.1255 22.6953 85.5765 19.8113H82.5125C82.2655 21.1473 81.2805 21.9113 79.3645 21.9113C77.0035 21.9113 75.6915 20.4323 75.5855 17.8443H85.6325V16.9273C85.6325 12.0193 82.5635 10.0003 79.1525 10.0003C75.2455 10.0003 72.3315 12.8323 72.3315 17.0843V17.2943C72.273 18.2239 72.4125 19.1552 72.7409 20.0268C73.0693 20.8983 73.5791 21.6902 74.2366 22.3499C74.894 23.0096 75.6841 23.5221 76.5545 23.8536C77.4249 24.185 78.3558 24.3277 79.2855 24.2723L79.2765 24.2703ZM75.6285 15.7173C75.9485 13.5923 77.2355 12.3033 79.1485 12.3033C81.1205 12.3033 82.3235 13.3513 82.4815 15.7123L75.6285 15.7173Z" fill="#8989A2"/>
</svg>
